<?xml version="1.0" encoding="utf-8"?>
<!-- Generator: Adobe Illustrator 23.0.2, SVG Export Plug-In . SVG Version: 6.00 Build 0)  -->
<svg version="1.1" id="Layer_1" xmlns="http://www.w3.org/2000/svg" xmlns:xlink="http://www.w3.org/1999/xlink" x="0px" y="0px"
	 viewBox="0 0 36 36" style="enable-background:new 0 0 36 36;" xml:space="preserve">
<path d="M5.7,13.9v8.2h5.5l6.8,6.8V7.1l-6.8,6.8H5.7z M15.3,13.7v8.7l-3-3H8.4v-2.7h3.9L15.3,13.7z M24.2,18c0-2.4-1.4-4.5-3.4-5.5
	v11C22.8,22.5,24.2,20.4,24.2,18z M20.7,6v2.8c4,1.2,6.8,4.8,6.8,9.2s-2.9,8-6.8,9.2V30c5.5-1.2,9.6-6.1,9.6-12S26.2,7.2,20.7,6z"/>
</svg>
