<?xml version="1.0" encoding="utf-8"?>
<!-- Svg Vector Icons : http://www.onlinewebfonts.com/icon -->
<!DOCTYPE svg PUBLIC "-//W3C//DTD SVG 1.1//EN" "http://www.w3.org/Graphics/SVG/1.1/DTD/svg11.dtd">
<svg version="1.1" xmlns="http://www.w3.org/2000/svg" xmlns:xlink="http://www.w3.org/1999/xlink" x="0px" y="0px" viewBox="0 0 1000 1000" enable-background="new 0 0 1000 1000" xml:space="preserve">
<metadata> Svg Vector Icons : http://www.onlinewebfonts.com/icon </metadata>
<g><path d="M238.4,966.5h-18.5c-60.3,0-109.7-49.3-109.7-109.7V576.1c0-60.3,49.3-109.7,109.7-109.7h18.5c60.3,0,109.7,49.3,109.7,109.7v280.8C348.1,917.2,298.7,966.5,238.4,966.5z"/><path d="M779.6,966.2h-18.5c-60.3,0-109.7-49.3-109.7-109.7V575.9c0-60.3,49.3-109.7,109.7-109.7h18.5c60.3,0,109.7,49.3,109.7,109.7v280.8C889.4,916.9,840,966.2,779.6,966.2z"/><path d="M68.8,729.2V536.5C68.8,300.5,254.1,100.3,490,95c244.9-5.5,441.1,193.2,441.1,436.8v197.3c0,16.2,13.1,29.4,29.4,29.4l0,0c16.2,0,29.4-13.1,29.4-29.4V534.4c0-274.7-224.8-506.1-499.4-500.8C224.3,38.6,10,256,10,523.4v205.8c0,16.2,13.1,29.4,29.4,29.4l0,0C55.7,758.5,68.8,745.4,68.8,729.2z"/></g>
</svg>